<?xml version="1.0" encoding="UTF-8"?>
<svg id="Layer_1" data-name="Layer 1" xmlns="http://www.w3.org/2000/svg" viewBox="0 0 979.5 360">
  <defs>
    <style>
      .cls-1 {
        fill: #fff;
        stroke-width: 0px;
      }
    </style>
  </defs>
  <path class="cls-1" d="M946,347.06V31.78l-130.33,315.29h-5.01L680.33,31.78v315.29h-16.04V12.73h25.56l123.31,299.25L936.47,12.73h25.56v334.33h-16.04Z"/>
  <g>
    <path class="cls-1" d="M238.89,272.87c-24.91,36.11-66.46,59.16-121.95,59.16H33.73v-59.16h-16.04v74.2h99.25c64.72,0,113.45-29.84,140.96-74.2h-19.01Z"/>
    <path class="cls-1" d="M33.73,138V27.77h83.21c78.21,0,128.74,46.81,144,110.23h17.58C262,67.67,203.92,12.73,116.94,12.73H17.69v125.27h16.04Z"/>
  </g>
  <g>
    <path class="cls-1" d="M70.93,201.24c0,4.07-2.36,7.19-6.37,7.19-2.91,0-5.13-2.17-5.13-5.15,0-4.21,4.3-4.34,4.3-8.95s-5.4-7.87-15.11-7.87c-17.74.14-25.64,16.82-25.64,29.84,0,20.62,10.12,31.88,23.42,31.88,14.55,0,20.65-7.73,22.87-13.7l3.33,1.36c-3.05,6.24-9.42,15.87-26.19,15.87s-28.69-14.38-28.69-33.77c0-21.97,15.24-34.59,31.46-34.59,13.58,0,21.76,7.6,21.76,17.9Z"/>
    <path class="cls-1" d="M147.96,217.52c0,19.67-11.78,34.18-31.6,34.18s-31.6-14.51-31.6-34.18,12.06-34.18,31.6-34.18,31.6,14.78,31.6,34.18ZM116.36,248.58c17.6,0,26.33-13.7,26.33-31.06s-8.73-31.06-26.33-31.06-26.33,13.97-26.33,31.06,9.01,31.06,26.33,31.06Z"/>
    <path class="cls-1" d="M167.19,235.02v-65.38c0-11.26-2.63-12.34-11.23-12.75v-2.44h15.66v80.57c0,11.26,2.63,12.34,11.22,12.75v2.44h-26.88v-2.44c8.59-.41,11.23-1.49,11.23-12.75Z"/>
    <path class="cls-1" d="M253.4,217.52c0,19.67-11.78,34.18-31.6,34.18s-31.6-14.51-31.6-34.18,12.06-34.18,31.6-34.18,31.6,14.78,31.6,34.18ZM221.8,248.58c17.6,0,26.33-13.7,26.33-31.06s-8.73-31.06-26.33-31.06-26.33,13.97-26.33,31.06,9.01,31.06,26.33,31.06Z"/>
    <path class="cls-1" d="M289.95,183.34c9.7,0,17.18,2.58,22.17,5.56v16.01h-2.08c-.42-14.24-10.81-18.45-20.09-18.45s-17.6,4.48-17.6,12.34c0,10.31,9.84,12.48,20.09,14.65,11.36,2.44,23.28,5.02,23.28,18.72,0,9.9-7.48,19.53-24.81,19.53-13.72,0-21.34-5.15-23.84-8.14v-16.28h2.22c.42,13.43,9.01,21.29,21.62,21.29s20.65-5.42,20.65-15.06c0-10.71-10.12-12.88-20.65-15.19-11.22-2.31-22.73-4.88-22.73-17.77,0-11.26,10.67-17.23,21.76-17.23Z"/>
    <path class="cls-1" d="M325.8,247.77c8.59-.41,11.23-1.49,11.23-12.75v-35.26c0-11.26-2.63-12.07-11.23-12.48v-2.44h15.66v50.18c0,11.26,2.63,12.34,11.22,12.75v2.44h-26.88v-2.44ZM338.97,159.33c3.19,0,5.82,2.58,5.82,5.7s-2.63,5.7-5.82,5.7-5.82-2.58-5.82-5.7,2.63-5.7,5.82-5.7Z"/>
    <path class="cls-1" d="M389.63,247.77v2.44h-27.02v-2.44c8.59-.41,11.23-1.49,11.23-12.75v-34.99c0-11.26-2.63-12.34-11.23-12.75v-2.44h15.66v11.12c6.51-6.78,15.52-12.61,25.08-12.61,8.87,0,15.11,3.93,17.05,13.43,6.65-7.19,15.94-13.43,25.78-13.43,10.95,0,17.74,5.83,17.74,20.75v30.92c0,11.26,2.63,12.34,11.23,12.75v2.44h-26.88v-2.44c8.59-.41,11.22-1.49,11.22-12.75v-31.06c0-13.56-6.1-16.95-13.3-16.95-9.98,0-18.29,5.7-25.22,13.02.14,1.22.14,2.58.14,4.07v30.92c0,11.26,2.63,12.34,11.22,12.75v2.44h-26.88v-2.44c8.59-.41,11.22-1.49,11.22-12.75v-31.06c0-13.56-6.1-16.95-13.3-16.95-9.84,0-18.15,5.56-25.08,12.89v35.13c0,11.26,2.77,12.34,11.36,12.75Z"/>
    <path class="cls-1" d="M545.5,217.52c0,19.67-11.78,34.18-31.6,34.18s-31.6-14.51-31.6-34.18,12.06-34.18,31.6-34.18,31.6,14.78,31.6,34.18ZM513.9,248.58c17.6,0,26.33-13.7,26.33-31.06s-8.73-31.06-26.33-31.06-26.33,13.97-26.33,31.06,9.01,31.06,26.33,31.06Z"/>
  </g>
  <path class="cls-1" d="M476.33,7.21c-82.59,0-139.49,54.96-154.77,130.79h17.58c14.27-69.17,64.44-115.75,137.19-115.75,85.71,0,141.35,66.17,141.35,157.89s-55.64,157.89-141.35,157.89c-52.94,0-93.92-25.03-117.81-65.17h-18.96c26.11,48.49,74.03,80.21,136.77,80.21,96.74,0,158.9-76.19,158.9-172.93S573.07,7.21,476.33,7.21Z"/>
</svg>