<?xml version="1.0" encoding="UTF-8"?>
<svg xmlns="http://www.w3.org/2000/svg" viewBox="0 0 1791.74 625.53">
  <defs>
    <style>
      .cls-1 {
        fill: #fff;
        stroke-width: 0px;
      }
    </style>
  </defs>
  <g id="DOM">
    <g>
      <path class="cls-1" d="M88.43,253.48V44.38h161.57c40.18,0,75.68,6.7,106.55,20.09,30.85,13.4,56.91,32.03,78.17,55.9,21.25,23.88,37.4,52.27,48.47,85.15,5.15,15.32,9.08,31.31,11.84,47.96h45c-3.05-20.72-7.72-40.79-14.04-60.19-12.23-37.56-30.57-70.31-55.02-98.25-24.45-27.95-55.17-50.07-92.14-66.38-36.98-16.29-79.91-24.45-128.82-24.45H43.89v249.27h44.54Z"/>
      <path class="cls-1" d="M469.44,455.44c-9.14,18.65-20.27,35.63-33.41,50.96-20.96,24.45-47.03,43.53-78.17,57.21-31.16,13.69-67.11,20.52-107.86,20.52H88.43v-128.69h-44.54v168.87h206.12c44.83,0,85.44-7.42,121.84-22.27,36.38-14.85,67.39-35.81,93.01-62.88,22.4-23.67,40.24-51.58,53.51-83.71h-48.93Z"/>
    </g>
    <path class="cls-1" d="M1747.83,624.3V88.05l-244.54,418.35h-27.95l-244.54-418.35v536.25h-44.54V4.21h44.54l258.52,443.67L1747.83,4.21h44.54v620.1h-44.54Z"/>
    <path class="cls-1" d="M1134.73,201.42c-13.97-37.18-33.62-70.47-58.95-99.87-25.33-29.4-55.9-53.17-91.7-71.33-35.81-18.16-75.26-27.24-118.34-27.24s-79.78,8.51-115.29,25.51c-35.52,17.01-66.24,39.92-92.14,68.74-25.91,28.83-46.29,61.97-61.14,99.43-7.34,18.52-12.85,37.46-16.56,56.82h45.39c2.76-12.68,6.39-25.28,10.91-37.79,11.64-32.27,28.23-61.24,49.78-86.9,21.53-25.64,47.45-46.26,77.73-61.82,30.27-15.56,64.04-23.35,101.31-23.35s68.12,7.5,97.82,22.48c29.7,15,55.46,35.02,77.29,60.09,21.83,25.07,38.87,53.9,51.09,86.46,12.23,32.57,18.34,66.44,18.34,101.6s-5.83,66.29-17.47,98.57c-11.65,32.29-28.1,61.25-49.35,86.9-21.26,25.65-46.88,46.26-76.86,61.82-30,15.56-63.62,23.34-100.87,23.34s-69.3-7.48-99.56-22.48c-30.28-14.98-56.33-35.02-78.17-60.09-12.53-14.39-23.43-30.02-32.7-46.88h-48.39c12.75,26.92,28.85,51.34,48.33,73.25,25.61,28.83,56.18,52.18,91.7,70.04,35.51,17.87,74.81,26.8,117.91,26.8s79.76-8.5,115.29-25.51c35.51-16.99,66.23-39.77,92.14-68.31,25.9-28.53,46.29-61.52,61.14-99,14.85-37.46,22.27-76.95,22.27-118.46,0-38.04-6.99-75.66-20.96-112.84Z"/>
  </g>
  <g id="colosimo">
    <path class="cls-1" d="M104.2,389.97c-3.89,29.95-23.06,41.55-46.67,41.55-32.78,0-53.06-20.05-53.06-57.98,0-34.54,19.72-53.39,50.84-53.39,17.5,0,31.39,6.76,38.34,20.53l.56-19.08h10.56v35.75l-10.83.97c-3.89-23.19-21.39-29.23-36.95-29.23-25,0-40.28,15.7-40.28,44.45,0,31.65,15.84,48.31,40.84,48.31,16.67,0,33.06-9.18,36.39-33.34l10.28,1.45Z"/>
    <path class="cls-1" d="M116.67,373.55c0-35.51,19.72-53.39,50.84-53.39s50.56,17.88,50.56,53.39c0,38.41-19.45,57.98-50.56,57.98s-50.84-19.57-50.84-57.98ZM206.4,373.55c0-29.23-15.28-43.96-38.89-43.96s-38.89,14.74-38.89,43.96c0,31.89,15,48.31,38.89,48.31s38.89-16.43,38.89-48.31Z"/>
    <path class="cls-1" d="M257.12,429.35c-12.5,0-19.17-5.31-19.17-16.19v-140.59h-16.95v-9.18h28.61v149.77c0,4.59,2.5,6.52,7.5,6.52h5.83v9.66h-5.83Z"/>
    <path class="cls-1" d="M269.4,373.55c0-35.51,19.72-53.39,50.84-53.39s50.56,17.88,50.56,53.39c0,38.41-19.45,57.98-50.56,57.98s-50.84-19.57-50.84-57.98ZM359.13,373.55c0-29.23-15.28-43.96-38.89-43.96s-38.89,14.74-38.89,43.96c0,31.89,15,48.31,38.89,48.31s38.89-16.43,38.89-48.31Z"/>
    <path class="cls-1" d="M383.24,429.35v-32.13l10.83-.48c5,15.94,24.17,26.33,45.84,26.33,17.22,0,33.06-7.97,33.06-23.19,0-7.97-4.72-14.01-14.17-17.15-30-9.42-72.79-6.52-72.79-35.51,0-17.15,18.61-27.06,42.23-27.06,18.89,0,36.39,6.28,43.06,19.08l.56-17.63h10.83v30.68l-11.11.72c-3.33-16.67-23.06-24.16-42.23-24.16s-31.95,6.52-31.95,17.63c0,33.09,88.34,12.08,88.34,52.66,0,20.05-18.89,32.37-43.62,32.37-20,0-38.89-7.97-47.5-21.98l-.56,19.81h-10.83Z"/>
    <path class="cls-1" d="M532.47,429.35c-12.5,0-19.45-5.31-19.45-16.19v-81.89h-16.95v-9.18h28.89v91.07c0,4.59,2.5,6.52,7.5,6.52h5.83v9.66h-5.83ZM513.03,299.63v-25.36h11.95v25.36h-11.95Z"/>
    <path class="cls-1" d="M710.8,429.35c-12.5,0-18.61-5.31-18.61-16.19,0-18.12.56-34.54.56-50.25,0-19.57-10-33.58-28.89-33.58-13.33,0-22.22,6.28-28.34,13.29,1.39,4.35,2.22,9.42,2.22,15.22v71.5h-11.95v-70.54c0-19.81-8.89-29.47-26.39-29.47-16.11,0-25.28,7-32.23,16.91v83.1h-11.95v-98.08h-15.56v-9.18h26.39v17.88c6.67-10.15,19.17-19.81,37.78-19.81,13.61,0,24.72,5.8,29.45,16.18,6.95-9.42,18.06-16.18,33.89-16.18,21.39,0,37.5,14.25,37.5,40.58,0,16.67-.83,33.58-.83,52.42,0,4.59,2.5,6.52,6.94,6.52h5v9.66h-5Z"/>
    <path class="cls-1" d="M723.6,373.55c0-35.51,19.72-53.39,50.84-53.39s50.56,17.88,50.56,53.39c0,38.41-19.45,57.98-50.56,57.98s-50.84-19.57-50.84-57.98ZM813.33,373.55c0-29.23-15.28-43.96-38.89-43.96s-38.89,14.74-38.89,43.96c0,31.89,15,48.31,38.89,48.31s38.89-16.43,38.89-48.31Z"/>
  </g>
  <g id="Circles">
    <g>
      <path class="cls-1" d="M865.29,130.3c29.79,0,57.78,8.33,82.11,22.96,1.06-1.34,2.21-2.62,3.43-3.81-5.62-3.42-11.42-6.51-17.41-9.26-21.58-9.9-44.5-14.91-68.14-14.91s-46.56,5.02-68.14,14.91c-20.81,9.54-39.49,23.2-55.53,40.58-19.2,20.82-33.36,45.64-41.83,72.71h5.32c23.15-71.73,86.11-123.18,160.17-123.18Z"/>
      <path class="cls-1" d="M1007.84,204.95c-1.18,1.25-2.42,2.42-3.75,3.51,19.44,29.93,30.86,66.41,30.86,105.8,0,101.59-75.96,183.95-169.66,183.95-41.39,0-79.3-16.07-108.75-42.77h-7.37c14.26,13.75,30.35,24.8,47.98,32.89,21.58,9.9,44.5,14.91,68.14,14.91s46.56-5.02,68.14-14.91c20.81-9.54,39.49-23.2,55.53-40.58,32.9-35.68,51.02-83.08,51.02-133.48,0-39.72-11.26-77.58-32.14-109.31Z"/>
    </g>
    <path class="cls-1" d="M978.76,138.09c22.03,0,39.89,17.77,39.89,39.7s-17.86,39.7-39.89,39.7-39.89-17.77-39.89-39.7,17.86-39.7,39.89-39.7M978.76,133.09c-24.75,0-44.89,20.05-44.89,44.7s20.14,44.7,44.89,44.7,44.89-20.05,44.89-44.7-20.14-44.7-44.89-44.7h0Z"/>
  </g>
  <g id="Symbols">
    <path class="cls-1" d="M795.16,377.9h-18.76v18.8h-4.1v-18.8h-18.86v-4.11h18.86v-18.8h4.1v18.8h18.76v4.11Z"/>
    <g>
      <path class="cls-1" d="M961.77,179.29v-2.4h33.94v2.4h-33.94Z"/>
      <path class="cls-1" d="M996.71,180.29h-35.94v-4.4h35.94v4.4ZM962.77,178.29h31.94v-.4h-31.94v.4Z"/>
    </g>
  </g>
</svg>