<?xml version="1.0" encoding="UTF-8"?>
<svg id="Layer_1" data-name="Layer 1" xmlns="http://www.w3.org/2000/svg" viewBox="0 0 31.76 31.77">
  <path d="M19.52,18.76c-.17.57-.42,1.04-.74,1.41-.32.36-.71.63-1.16.8-.46.17-.97.25-1.53.25h-2.61c-.2,0-.35-.06-.46-.17-.11-.11-.17-.27-.17-.46v-8.9c0-.2.06-.35.17-.46.11-.11.27-.17.46-.17h2.61c.56,0,1.07.08,1.53.25.46.17.84.43,1.16.8.32.36.57.83.74,1.41.17.57.26,1.27.26,2.1v1.06c0,.83-.09,1.53-.26,2.1ZM17.14,19.88c.3-.12.55-.31.76-.58s.36-.62.46-1.05c.1-.43.16-.96.16-1.59v-1.06c0-.63-.05-1.16-.16-1.59-.1-.43-.26-.78-.46-1.05s-.46-.46-.76-.58c-.3-.12-.65-.18-1.04-.18h-1.98v7.87h1.98c.39,0,.74-.06,1.04-.18Z"/>
  <path d="M31.76,5.02c0-2.77-2.25-5.02-5.02-5.02-1.6,0-3.01.77-3.93,1.94-2.13-1.07-4.52-1.68-7.06-1.68C7.07.26,0,7.33,0,16.02s7.07,15.76,15.76,15.76,15.76-7.07,15.76-15.76c0-2.54-.61-4.94-1.69-7.07,1.17-.92,1.94-2.33,1.94-3.93ZM26.75,1c2.22,0,4.02,1.8,4.02,4.02s-1.8,4.02-4.02,4.02-4.02-1.8-4.02-4.02,1.8-4.02,4.02-4.02ZM30.01,16.02c0,7.87-6.38,14.26-14.26,14.26S1.5,23.89,1.5,16.02,7.88,1.76,15.76,1.76c2.27,0,4.41.54,6.31,1.48-.21.55-.34,1.15-.34,1.78,0,2.77,2.25,5.02,5.02,5.02.63,0,1.23-.13,1.78-.34.95,1.91,1.48,4.05,1.48,6.33Z"/>
  <path d="M26.05,7.14c-.21-.08-.38-.2-.53-.36s-.26-.37-.34-.62c-.08-.25-.12-.55-.12-.9v-.57c0-.35.04-.65.12-.9s.19-.46.34-.62.32-.28.53-.36c.21-.08.43-.12.68-.12.28,0,.51.04.71.11.19.08.35.17.47.29.12.12.21.24.27.38.06.14.08.27.08.39,0,.11-.03.2-.08.26-.06.06-.14.09-.25.09-.1,0-.17-.02-.22-.07-.05-.05-.09-.12-.11-.21-.06-.21-.15-.37-.28-.46-.13-.09-.33-.14-.59-.14-.15,0-.28.02-.39.07-.11.05-.21.13-.29.24s-.14.25-.18.42-.06.37-.06.61v.57c0,.24.02.44.06.61.04.17.1.31.18.42s.18.19.29.24c.11.05.24.08.39.08s.28-.01.38-.04c.1-.03.18-.07.25-.12s.12-.12.16-.19c.04-.07.07-.16.08-.25.03-.08.06-.15.11-.21.05-.06.12-.08.22-.08.1,0,.18.03.24.09.06.06.09.14.09.25,0,.15-.03.3-.1.45s-.16.27-.28.39c-.12.11-.28.21-.48.28-.19.07-.42.11-.67.11s-.47-.04-.68-.12Z"/>
  <path d="M15.76,7.86c4.5,0,8.16,3.65,8.16,8.16s-3.65,8.16-8.16,8.16-8.16-3.65-8.16-8.16,3.65-8.16,8.16-8.16M15.76,6.36c-5.32,0-9.66,4.33-9.66,9.66s4.33,9.66,9.66,9.66,9.66-4.33,9.66-9.66-4.33-9.66-9.66-9.66h0Z"/>
</svg>